#!OML:ASF E:\Mandelcareful walks\Project 1\Capture day 1\Session 1\Subject1.ASF
:FULLY-SPECIFIED
:DEGREES
386
root -0.850343 15.9361 0.601852 -364.865 90.9513 -373.55
lowerback 35.4811 -0.12269 -2.14959
upperback 7.26281 -0.0276553 0.164067
thorax -9.70311 0.384429 1.25919
lowerneck -25.3459 3.10967 0.321019
upperneck 16.625 5.4732 -5.69753
head 9.59444 1.88771 -1.20986
rclavicle 2.38542e-015 1.71949e-014
rhumerus -16.3133 6.44643 -77.4008
rradius 52.6397
rwrist -18.7465
rhand -13.9386 -24.7325
rfingers 7.12502
rthumb 12.1883 -54.3574
lclavicle 2.38542e-015 1.71949e-014
lhumerus -12.0021 -13.8595 82.2015
lradius 45.8543
lwrist 22.0402
lhand -24.1529 -11.0769
lfingers 7.12502
lthumb 2.32965 18.8902
rfemur -37.7478 -11.6184 13.0331
rtibia 46.1995
rfoot -14.3723 -2.26647
rtoes -6.00488
lfemur -36.6183 8.42123 -16.8372
ltibia 53.6501
lfoot -22.8306 -1.51499
ltoes 3.96035
387
root -0.82576 15.9273 0.686121 -374.609 91.0549 -383.203
lowerback 35.4383 -0.0443074 -2.12155
upperback 7.15096 0.0650381 0.139817
thorax -9.81563 0.424166 1.18313
lowerneck -25.571 3.06051 0.406372
upperneck 17.0031 5.42646 -5.78662
head 9.77166 1.8467 -1.26083
rclavicle 6.31141e-015 -3.08116e-015
rhumerus -16.308 6.13543 -77.4341
rradius 52.2844
rwrist -18.7012
rhand -14.1726 -24.2146
rfingers 7.12502
rthumb 11.9627 -53.8528
lclavicle 6.31141e-015 -3.08116e-015
lhumerus -12.256 -13.7614 82.4093
lradius 45.9756
lwrist 21.9715
lhand -24.2074 -11.4982
lfingers 7.12502
lthumb 2.27705 18.4694
rfemur -37.771 -11.5374 13.0972
rtibia 46.5724
rfoot -14.8551 -2.31679
rtoes -5.28579
lfemur -36.3986 8.58038 -16.7202
ltibia 53.5702
lfoot -22.7747 -1.57838
ltoes 2.83812
388
root -0.803053 15.9243 0.768649 -376.981 91.3266 -385.491
lowerback 35.3404 -0.0491183 -1.9905
upperback 7.08293 0.102593 0.160439
thorax -9.8579 0.437142 1.12201
lowerneck -25.7163 2.95297 0.230586
upperneck 17.3112 5.33886 -5.66484
head 9.89495 1.79819 -1.20279
rclavicle -1.88845e-015 8.19987e-015
rhumerus -16.2864 5.79859 -77.4101
rradius 51.9938
rwrist -18.6451
rhand -13.8456 -24.57
rfingers 7.12502
rthumb 12.278 -54.1895
lclavicle -1.88845e-015 8.19987e-015
lhumerus -12.4724 -13.6379 82.6652
lradius 46.0792
lwrist 21.757
lhand -24.142 -12.1477
lfingers 7.12502
lthumb 2.34025 17.8192
rfemur -37.7312 -11.6394 13.2268
rtibia 46.9359
rfoot -15.3329 -2.36968
rtoes -4.57688
lfemur -36.1946 8.63444 -16.544
ltibia 53.4394
lfoot -22.7005 -1.7578
ltoes 1.58109
389
root -0.781862 15.9224 0.85066 -374.125 91.666 -382.613
lowerback 35.171 -0.142303 -1.86104
upperback 7.0452 0.0425153 0.267496
thorax -9.83691 0.40456 1.19208
lowerneck -25.9938 2.9113 -0.0393494
upperneck 17.6944 5.38427 -5.53989
head 10.071 1.80019 -1.10606
rclavicle -1.73937e-015 3.16813e-015
rhumerus -16.1366 5.7086 -77.3597
rradius 51.8826
rwrist -18.7705
rhand -13.9406 -24.5243
rfingers 7.12502
rthumb 12.1864 -54.1493
lclavicle -1.73937e-015 3.16813e-015
lhumerus -12.6206 -13.3081 82.91
lradius 46.1867
lwrist 21.5218
lhand -24.0363 -12.5357
lfingers 7.12502
lthumb 2.44232 17.4301
rfemur -37.7272 -11.8417 13.476
rtibia 47.2908
rfoot -15.7568 -2.45276
rtoes -4.31875
lfemur -36.1006 8.6492 -16.2905
ltibia 53.318
lfoot -22.5858 -1.95375
ltoes 0.619814
390
root -0.761438 15.9196 0.929657 -375.358 92.0029 -383.745
lowerback 35.0296 -0.240409 -1.78384
upperback 7.16423 -0.037505 0.309054
thorax -9.77079 0.367752 1.23052
lowerneck -26.6309 2.95481 -0.102565
upperneck 18.3007 5.535 -5.58228
head 10.4068 1.83016 -1.08222
rclavicle -1.28216e-014 -1.49089e-014
rhumerus -15.791 5.62059 -77.341
rradius 51.7628
rwrist -18.8787
rhand -14.0256 -24.7971
rfingers 7.12502
rthumb 12.1044 -54.427
lclavicle -1.28216e-014 -1.49089e-014
lhumerus -12.5405 -13.0091 83.0572
lradius 46.248
lwrist 21.2035
lhand -24.2164 -12.2805
lfingers 7.12502
lthumb 2.26838 17.6872
rfemur -37.6264 -11.9424 13.5524
rtibia 47.6319
rfoot -16.1737 -2.53518
rtoes -3.78418
lfemur -35.8923 8.66539 -16.1385
ltibia 53.1909
lfoot -22.4439 -2.21013
ltoes 0.279208
391
root -0.73778 15.9144 1.00287 -378.507 92.2674 -386.695
lowerback 34.9869 -0.212432 -1.72805
upperback 7.06307 0.0085784 0.314576
thorax -9.86966 0.386082 1.18931
lowerneck -26.2303 2.94426 0.010031
upperneck 18.6332 5.51657 -5.65401
head 10.4636 1.82052 -1.13243
rclavicle -1.14301e-015 1.46107e-014
rhumerus -16.0628 5.35319 -77.3528
rradius 51.8194
rwrist -18.9258
rhand -13.71 -25.9477
rfingers 7.12502
rthumb 12.4087 -55.5594
lclavicle -1.14301e-015 1.46107e-014
lhumerus -12.8638 -13.0067 83.3332
lradius 46.3115
lwrist 20.827
lhand -24.4245 -12.2773
lfingers 7.12502
lthumb 2.0674 17.6924
rfemur -37.4182 -11.9941 13.5245
rtibia 47.967
rfoot -16.5173 -2.56398
rtoes -3.22865
lfemur -35.5204 8.65491 -16.0302
ltibia 53.0912
lfoot -22.3462 -2.44592
ltoes 0.142184
392
root -0.714289 15.9078 1.07101 -380.672 92.3022 -388.802
lowerback 34.7722 -0.138623 -1.57797
upperback 7.05426 0.150252 0.310845
thorax -9.80482 0.445441 1.05214
lowerneck -26.3355 2.89433 -0.0658511
upperneck 19.0939 5.50199 -5.60149
head 10.6468 1.80066 -1.10367
rclavicle 4.96962e-016 -9.93923e-017
rhumerus -16.1377 4.99411 -77.3419
rradius 51.9054
rwrist -18.9655
rhand -13.4895 -26.6392
rfingers 7.12502
rthumb 12.6213 -56.2379
lclavicle 4.96962e-016 -9.93923e-017
lhumerus -12.9654 -13.0487 83.5255
lradius 46.3378
lwrist 20.5734
lhand -24.4434 -12.63
lfingers 7.12502
lthumb 2.04916 17.3399
rfemur -37.4492 -11.9952 13.6775
rtibia 48.2947
rfoot -16.7456 -2.54405
rtoes -3.1516
lfemur -35.2844 8.75821 -15.8423
ltibia 52.9761
lfoot -22.3456 -2.54667
ltoes 0.325703
393
root -0.699333 15.9018 1.13773 -385.926 92.2387 -394.146
lowerback 34.5515 -0.000642181 -1.54015
upperback 7.09462 0.333868 0.284505
thorax -9.68223 0.527223 0.9353
lowerneck -27.0301 2.90724 -0.112371
upperneck 19.6888 5.61691 -5.67211
head 10.9965 1.80984 -1.09857
rclavicle -2.28602e-015 -7.55382e-015
rhumerus -15.9327 4.64184 -77.2963
rradius 51.9035
rwrist -18.9698
rhand -13.3525 -26.5154
rfingers 7.12502
rthumb 12.7534 -56.1059
lclavicle -2.28602e-015 -7.55382e-015
lhumerus -12.8189 -13.0221 83.6472
lradius 46.3935
lwrist 20.3075
lhand -24.3651 -12.4176
lfingers 7.12502
lthumb 2.12476 17.5515
rfemur -37.7423 -11.8841 13.7892
rtibia 48.6378
rfoot -17.0223 -2.48087
rtoes -2.70937
lfemur -35.2445 9.03107 -15.774
ltibia 52.8612
lfoot -22.3571 -2.62254
ltoes 0.660515
394
root -0.67615 15.9056 1.21279 -383.974 93.0101 -391.987
lowerback 34.6506 -0.191213 -1.61151
upperback 6.98761 0.0857821 0.44067
thorax -9.83239 0.415498 1.23321
lowerneck -26.6636 3.07933 0.0561225
upperneck 19.966 5.93193 -6.10742
head 11.0695 1.91168 -1.23324
rclavicle -2.38542e-014 -4.47266e-014
rhumerus -16.1363 4.8589 -77.202
rradius 52.0435
rwrist -19.1349
rhand -13.332 -26.6548
rfingers 7.12502
rthumb 12.7732 -56.2441
lclavicle -2.38542e-014 -4.47266e-014
lhumerus -13.254 -12.6198 84.0032
lradius 46.5411
lwrist 19.9178
lhand -24.4503 -12.1812
lfingers 7.12502
lthumb 2.04244 17.7888
rfemur -37.3754 -12.3343 13.6592
rtibia 48.9708
rfoot -17.6057 -2.59098
rtoes -1.61404
lfemur -34.9282 8.68776 -15.7619
ltibia 52.6715
lfoot -22.176 -2.97438
ltoes 0.370387
395
root -0.65433 15.9004 1.27863 -384.357 93.449 -392.239
lowerback 34.6009 -0.324252 -1.53751
upperback 7.02092 -0.0416208 0.487753
thorax -9.77348 0.357539 1.2925
lowerneck -26.8433 3.22504 0.172572
upperneck 20.4312 6.23718 -6.4641
head 11.3086 1.99645 -1.3298
rclavicle -2.78299e-015 -3.18055e-015
rhumerus -16.0117 4.93209 -77.1483
rradius 52.1673
rwrist -19.2345
rhand -13.8326 -26.1184
rfingers 7.12502
rthumb 12.2905 -55.7372
lclavicle -2.78299e-015 -3.18055e-015
lhumerus -13.3133 -12.3312 84.2121
lradius 46.5263
lwrist 19.5625
lhand -24.6485 -12.4808
lfingers 7.12502
lthumb 1.85106 17.4909
rfemur -37.2232 -12.521 13.5988
rtibia 49.2898
rfoot -18.022 -2.69535
rtoes -0.915483
lfemur -34.6822 8.57278 -15.7186
ltibia 52.4851
lfoot -21.945 -3.22952
ltoes 0.0133599
396
root -0.638506 15.8925 1.3404 -386.242 93.6355 -394.059
lowerback 34.5099 -0.347348 -1.47615
upperback 7.08983 -0.0395843 0.497715
thorax -9.66327 0.358802 1.26951
lowerneck -27.1413 3.28583 0.0842203
upperneck 20.9431 6.43949 -6.55298
head 11.5674 2.04722 -1.31215
rclavicle 8.15017e-015 1.64991e-014
rhumerus -15.7767 4.91716 -77.0934
rradius 52.2656
rwrist -19.2269
rhand -14.0699 -25.5744
rfingers 7.12502
rthumb 12.0617 -55.2068
lclavicle 8.15017e-015 1.64991e-014
lhumerus -13.2713 -12.1804 84.3231
lradius 46.4942
lwrist 19.214
lhand -24.6301 -12.6905
lfingers 7.12502
lthumb 1.86882 17.2811
rfemur -37.2446 -12.4967 13.5933
rtibia 49.5704
rfoot -18.2746 -2.82866
rtoes -0.813279
lfemur -34.4747 8.59461 -15.6591
ltibia 52.2756
lfoot -21.8091 -3.35975
ltoes 0.0353214
